<svg width="163" height="18" viewBox="0 0 163 18" fill="none" xmlns="http://www.w3.org/2000/svg">
<path d="M81.6974 5.5922C80.2403 5.5922 79.8548 6.48705 79.8712 7.5578V8.61509H81.7839V9.93189H79.8712V16.811H78.3448V9.92709H76.7656V8.61028H78.3448V7.76829C78.3448 5.6268 79.2406 4.15332 81.434 4.15332H82.3116V5.59508L81.6974 5.5922Z" fill="white"/>
<path d="M81.9531 12.6999C81.9531 10.1048 83.9014 8.39966 86.2351 8.39966C88.5689 8.39966 90.5354 10.1019 90.5354 12.6999C90.5354 15.298 88.5698 17.0127 86.2351 17.0127C83.9005 17.0127 81.9531 15.297 81.9531 12.6999ZM89.0081 12.6999C89.0081 11.015 87.7442 9.8395 86.2351 9.8395C84.7434 9.8395 83.4977 11.015 83.4977 12.6999C83.4977 14.4022 84.7473 15.5777 86.2351 15.5777C87.7442 15.5777 89.0081 14.4022 89.0081 12.6999Z" fill="white"/>
<path d="M97.114 8.71588L96.8689 10.1576C96.4961 9.97828 96.0887 9.88249 95.6751 9.87698C94.0411 9.87698 93.3933 11.6494 93.3933 13.8082V16.809H91.8496V8.61016H93.3933V10.471C93.8143 9.02923 94.6043 8.39966 95.6924 8.39966C96.272 8.39966 96.8689 8.55441 97.114 8.71588Z" fill="white"/>
<path d="M111.013 13.4017C111.013 15.1395 109.697 16.8062 107.486 16.8062H102.555V4.7146H107.1C109.1 4.7146 110.368 5.90838 110.368 7.80381C110.368 8.85629 109.984 9.92704 108.841 10.3653C110.258 10.6816 111.013 12.0858 111.013 13.4017ZM107.082 6.19288H104.151V9.75499H107.131C108.219 9.75499 108.765 9.00047 108.765 7.96529C108.765 6.9301 108.188 6.18904 107.082 6.18904V6.19288ZM107.152 15.3356C108.644 15.3356 109.417 14.3888 109.417 13.2652C109.417 12.1771 108.714 11.1593 107.24 11.1593H104.151V15.3356H107.152Z" fill="white"/>
<path d="M118.403 8.61029H119.928V16.8062H118.402V15.525C117.91 16.5611 116.595 17.0129 115.683 17.0129C113.629 17.0129 112.366 15.6442 112.383 13.345V8.60645H113.909V13.3104C113.909 14.6964 114.735 15.574 115.875 15.574C117.015 15.574 118.385 14.8896 118.403 13.1172V8.61029Z" fill="white"/>
<path d="M121.156 14.4022H122.578C122.595 15.1038 123.209 15.6834 124.212 15.6834C125.247 15.6834 125.861 15.174 125.861 14.507C125.861 13.8928 125.387 13.5775 124.739 13.4372L123.615 13.1738C122.246 12.8047 121.456 12.1377 121.456 10.8218C121.456 9.4704 122.614 8.39966 124.265 8.39966C125.651 8.39966 127.09 9.13688 127.09 10.7863H125.616C125.598 10.1548 124.949 9.73377 124.299 9.73377C123.51 9.73377 122.983 10.2422 122.983 10.8747C122.983 11.436 123.51 11.734 124.041 11.857L125.252 12.1559C126.954 12.5769 127.393 13.5977 127.393 14.5252C127.393 16.0516 125.919 17.0166 124.221 17.0166C122.735 17.0127 121.226 16.0871 121.156 14.4022Z" fill="white"/>
<path d="M128.336 5.5921C128.336 5.0154 128.827 4.57422 129.407 4.57422C130.004 4.57422 130.495 5.01251 130.495 5.5921C130.495 6.17169 130.004 6.60998 129.407 6.60998C128.827 6.60998 128.336 6.17073 128.336 5.5921ZM128.652 16.8061V8.61019H130.179V16.8061H128.652Z" fill="white"/>
<path d="M139.516 12.0675V16.8061H137.989V12.156C137.989 10.7863 137.147 9.90971 136.006 9.90971C134.865 9.90971 133.496 10.5941 133.496 12.3665V16.8061H131.969V8.61021H133.496V9.85973C133.987 8.85915 135.322 8.40259 136.216 8.40259C138.252 8.39971 139.536 9.76938 139.516 12.0675Z" fill="white"/>
<path d="M148.931 13.367H142.263C142.491 14.8232 143.544 15.5777 144.947 15.5777C145.948 15.5777 146.861 15.1211 147.335 14.2965L148.651 14.8232C147.949 16.2448 146.475 17.0166 144.895 17.0166C142.561 17.0166 140.684 15.2797 140.684 12.6817C140.684 10.0836 142.561 8.39966 144.895 8.39966C147.23 8.39966 148.967 10.0846 148.967 12.6817C148.967 12.9104 148.949 13.1382 148.931 13.367ZM147.44 12.0502C147.247 10.6459 146.247 9.8395 144.895 9.8395C143.508 9.8395 142.526 10.5758 142.28 12.0502H147.44Z" fill="white"/>
<path d="M149.615 14.4022H151.037C151.054 15.1038 151.668 15.6834 152.671 15.6834C153.706 15.6834 154.32 15.174 154.32 14.507C154.32 13.8928 153.846 13.5775 153.197 13.4372L152.074 13.1738C150.705 12.8047 149.915 12.1377 149.915 10.8218C149.915 9.4704 151.069 8.39966 152.724 8.39966C154.11 8.39966 155.549 9.13688 155.549 10.7863H154.074C154.057 10.1548 153.408 9.73377 152.758 9.73377C151.968 9.73377 151.442 10.2422 151.442 10.8747C151.442 11.436 151.968 11.734 152.5 11.857L153.711 12.1559C155.413 12.5769 155.852 13.5977 155.852 14.5252C155.852 16.0516 154.378 17.0166 152.68 17.0166C151.194 17.0127 149.685 16.0871 149.615 14.4022Z" fill="white"/>
<path d="M156.562 14.4022H157.984C158.001 15.1038 158.616 15.6834 159.618 15.6834C160.653 15.6834 161.267 15.174 161.267 14.507C161.267 13.8928 160.794 13.5775 160.145 13.4372L159.021 13.1738C157.652 12.8047 156.862 12.1377 156.862 10.8218C156.862 9.4704 158.016 8.39966 159.671 8.39966C161.057 8.39966 162.496 9.13688 162.496 10.7863H161.022C161.004 10.1548 160.355 9.73377 159.706 9.73377C158.916 9.73377 158.39 10.2422 158.39 10.8747C158.39 11.436 158.916 11.734 159.442 11.857L160.653 12.1559C162.355 12.5769 162.795 13.5977 162.795 14.5252C162.795 16.0516 161.32 17.0166 159.623 17.0166C158.142 17.0127 156.633 16.0871 156.562 14.4022Z" fill="white"/>
<path d="M6.03583 6.93398V6.21983C4.85412 6.0584 3.65245 6.29902 2.62401 6.90301C1.59557 7.50701 0.800111 8.43929 0.365509 9.54997C-0.0690922 10.6607 -0.117584 11.8852 0.227831 13.0268C0.573245 14.1684 1.2925 15.1606 2.26996 15.8441L2.19595 15.7633C1.5299 15.0047 1.09341 14.0723 0.937417 13.0749C0.781429 12.0775 0.912386 11.0563 1.315 10.1305C1.71761 9.20479 2.37526 8.41266 3.21118 7.84665C4.04709 7.28064 5.02677 6.9641 6.03583 6.93398Z" fill="#25F4EE"/>
<path d="M6.16085 14.6713C6.79325 14.6668 7.39972 14.4195 7.85497 13.9805C8.31022 13.5415 8.57945 12.9444 8.60704 12.3126L8.6128 0.750676H10.712L10.7072 0.724725C10.6635 0.485629 10.6416 0.243056 10.6418 0H7.74775V11.5841C7.73345 11.9946 7.61508 12.3948 7.40376 12.7471C7.19243 13.0994 6.89508 13.3922 6.53959 13.5981C6.1841 13.804 5.78214 13.9162 5.3714 13.9242C4.96067 13.9322 4.55464 13.8357 4.19141 13.6439C4.41514 13.9586 4.71027 14.2158 5.05261 14.3944C5.39495 14.573 5.77474 14.6679 6.16085 14.6713Z" fill="#25F4EE"/>
<path d="M14.6612 4.70966V4.01953C13.8821 4.01939 13.12 3.79154 12.4688 3.36401C13.033 4.00992 13.7952 4.51742 14.6612 4.70966Z" fill="#25F4EE"/>
<path d="M12.4685 3.36404C11.8304 2.63402 11.4789 1.69716 11.4795 0.727539H10.6855C10.7895 1.26455 11.0011 1.77497 11.3075 2.22807C11.6139 2.68117 12.0088 3.06758 12.4685 3.36404Z" fill="#FE2C55"/>
<path d="M5.31836 9.03491C4.77046 9.03141 4.23737 9.21276 3.80526 9.54965C3.37315 9.88654 3.06725 10.3593 2.937 10.8915C2.80676 11.4237 2.85977 11.9843 3.08747 12.4827C3.31517 12.981 3.70427 13.3881 4.19187 13.638C3.89044 13.2255 3.72718 12.7283 3.72545 12.2175C3.72372 11.7067 3.88361 11.2084 4.18225 10.7939C4.48088 10.3794 4.90295 10.07 5.38808 9.91C5.8732 9.74996 6.39652 9.74745 6.88315 9.90285V6.95205C6.64558 6.91868 6.40602 6.90134 6.16612 6.90015C6.12383 6.90015 6.0825 6.90015 6.0402 6.90015H6.02098V9.12911C5.79326 9.06059 5.55609 9.02879 5.31836 9.03491Z" fill="#FE2C55"/>
<path d="M14.661 4.66064H14.6457L14.6389 6.88576C13.1967 6.88443 11.7916 6.42873 10.6231 5.58337V11.4907C10.6184 12.4596 10.3493 13.4088 9.84504 14.2361C9.34074 15.0634 8.62029 15.7374 7.76128 16.1855C6.90228 16.6337 5.93729 16.8389 4.97026 16.7792C4.00323 16.7196 3.07081 16.3972 2.27344 15.8468C3.00062 16.6299 3.94692 17.1756 4.98891 17.4128C6.03089 17.6501 7.12019 17.5678 8.1147 17.1767C9.10921 16.7856 9.96277 16.1038 10.564 15.2204C11.1653 14.3369 11.4864 13.2928 11.4853 12.2241V6.34366C12.6571 7.18563 14.064 7.63788 15.5069 7.63644V4.75003C15.2226 4.74996 14.9391 4.72 14.661 4.66064Z" fill="#FE2C55"/>
<path d="M10.6436 11.4879V5.61414C11.8152 6.45635 13.2222 6.90862 14.6651 6.90692V4.66066C13.8122 4.47754 13.0419 4.02254 12.4698 3.36404C12.0128 3.06677 11.6209 2.67981 11.3179 2.22662C11.0149 1.77342 10.8071 1.26343 10.707 0.727539H8.59242V12.3116C8.57439 12.8173 8.39859 13.3048 8.08966 13.7056C7.78072 14.1064 7.35413 14.4006 6.86966 14.5468C6.38518 14.693 5.86709 14.684 5.38799 14.5211C4.90888 14.3581 4.49276 14.0493 4.19793 13.638C3.71651 13.3861 3.33345 12.98 3.11001 12.4848C2.88657 11.9895 2.83566 11.4336 2.96541 10.9059C3.09516 10.3783 3.39808 9.90943 3.82573 9.57425C4.25339 9.23908 4.78108 9.05698 5.32443 9.05707C5.56777 9.05778 5.80958 9.0957 6.04146 9.16952V6.90404C5.0166 6.92747 4.02038 7.24676 3.17284 7.82345C2.3253 8.40013 1.66261 9.2096 1.26461 10.1543C0.866607 11.099 0.750286 12.1387 0.929661 13.148C1.10903 14.1573 1.57645 15.0932 2.27559 15.8429C3.07221 16.4018 4.00697 16.7313 4.97797 16.7954C5.94897 16.8596 6.91894 16.6559 7.78215 16.2066C8.64536 15.7574 9.36867 15.0798 9.87324 14.2477C10.3778 13.4156 10.6443 12.461 10.6436 11.4879Z" fill="white"/>
<path d="M18.3633 4.67041H27.3983L26.5688 7.25404H24.2236V16.8081H21.3035V7.25404L18.3662 7.25981L18.3633 4.67041Z" fill="white"/>
<path d="M42.1914 4.67041H51.4321L50.6026 7.25404H48.0555V16.8081H45.1316V7.25404L42.1933 7.25981L42.1914 4.67041Z" fill="white"/>
<path d="M27.9473 8.53052H30.8433L30.8404 16.8072H27.9646L27.9473 8.53052Z" fill="white"/>
<path d="M31.9922 4.63574H34.8844V10.2846L37.7487 7.47505H41.2089L37.5824 10.9939L41.6443 16.8071H38.4522L35.7417 12.7759L34.8844 13.6093V16.8071H31.9922V4.63574Z" fill="white"/>
<path d="M62.6426 4.63574H65.5357V10.2846L68.4019 7.4712H71.8545L68.2289 10.9901L72.2899 16.8032H69.1007L66.3912 12.7759L65.5338 13.6093V16.8071H62.6426V4.63574Z" fill="white"/>
<path d="M29.3946 7.58469C30.1994 7.58469 30.8518 6.9323 30.8518 6.12755C30.8518 5.32279 30.1994 4.67041 29.3946 4.67041C28.5899 4.67041 27.9375 5.32279 27.9375 6.12755C27.9375 6.9323 28.5899 7.58469 29.3946 7.58469Z" fill="white"/>
<path d="M51.0613 11.8523C51.0613 10.6061 51.5311 9.40572 52.377 8.49056C53.2229 7.57539 54.3826 7.01272 55.625 6.91478C55.4962 6.90517 55.3212 6.89844 55.1905 6.89844C53.8885 6.91657 52.6459 7.44653 51.7316 8.37368C50.8173 9.30083 50.3047 10.5506 50.3047 11.8528C50.3047 13.155 50.8173 14.4048 51.7316 15.3319C52.6459 16.2591 53.8885 16.789 55.1905 16.8072C55.3212 16.8072 55.4962 16.8004 55.625 16.7899C54.3826 16.6919 53.2229 16.1293 52.377 15.2141C51.5311 14.2989 51.0613 13.0985 51.0613 11.8523Z" fill="#25F4EE"/>
<path d="M56.7537 6.89843C56.6221 6.89843 56.4462 6.90516 56.3164 6.91477C57.5586 7.01289 58.7182 7.57564 59.5639 8.49078C60.4096 9.40593 60.8793 10.6062 60.8793 11.8523C60.8793 13.0984 60.4096 14.2987 59.5639 15.2138C58.7182 16.129 57.5586 16.6917 56.3164 16.7899C56.4462 16.8004 56.6221 16.8072 56.7537 16.8072C57.4102 16.8163 58.0619 16.6949 58.671 16.45C59.2801 16.2052 59.8344 15.8417 60.3019 15.3807C60.7693 14.9198 61.1405 14.3705 61.3938 13.7649C61.6471 13.1592 61.7776 12.5093 61.7776 11.8528C61.7776 11.1963 61.6471 10.5464 61.3938 9.94073C61.1405 9.33509 60.7693 8.78584 60.3019 8.32488C59.8344 7.86391 59.2801 7.50043 58.671 7.25556C58.0619 7.01068 57.4102 6.88929 56.7537 6.89843Z" fill="#FE2C55"/>
<path d="M55.9714 6.89844C54.9914 6.89825 54.0333 7.18871 53.2183 7.73308C52.4033 8.27745 51.7681 9.05128 51.393 9.9567C51.0178 10.8621 50.9196 11.8585 51.1108 12.8197C51.3019 13.7809 51.7739 14.6639 52.4669 15.3569C53.1599 16.0499 54.0428 16.5218 55.0041 16.713C55.9653 16.9041 56.9616 16.8059 57.8671 16.4308C58.7725 16.0556 59.5463 15.4204 60.0907 14.6054C60.6351 13.7905 60.9255 12.8324 60.9253 11.8523C60.9253 10.5385 60.4034 9.27843 59.4744 8.3494C58.5453 7.42036 57.2853 6.89844 55.9714 6.89844ZM55.9714 14.261C55.495 14.261 55.0293 14.1198 54.6332 13.8551C54.2371 13.5904 53.9284 13.2142 53.7461 12.7741C53.5638 12.334 53.5161 11.8497 53.609 11.3824C53.702 10.9152 53.9314 10.486 54.2682 10.1491C54.6051 9.81225 55.0343 9.58285 55.5015 9.48991C55.9688 9.39697 56.4531 9.44467 56.8932 9.62697C57.3333 9.80928 57.7095 10.118 57.9742 10.5141C58.2389 10.9102 58.3801 11.3759 58.3801 11.8523C58.3801 12.4911 58.1264 13.1038 57.6746 13.5555C57.2229 14.0072 56.6103 14.261 55.9714 14.261Z" fill="white"/>
</svg>
